<svg width="24" height="24" viewBox="0 0 24 24" fill="none" xmlns="http://www.w3.org/2000/svg">
<rect width="24" height="24" rx="12" fill="#FFCC00"/>
<path d="M11.7732 13.168C11.7332 13.168 11.6972 13.156 11.6652 13.132C11.6412 13.1 11.6292 13.064 11.6292 13.024L11.4972 7.744C11.4972 7.704 11.5092 7.672 11.5332 7.648C11.5652 7.616 11.6012 7.6 11.6412 7.6H12.7452C12.7852 7.6 12.8172 7.616 12.8412 7.648C12.8732 7.672 12.8892 7.704 12.8892 7.744L12.7572 13.024C12.7572 13.064 12.7412 13.1 12.7092 13.132C12.6852 13.156 12.6532 13.168 12.6132 13.168H11.7732ZM12.1212 15.976C11.8732 15.976 11.6692 15.896 11.5092 15.736C11.3572 15.576 11.2812 15.372 11.2812 15.124C11.2812 14.876 11.3572 14.676 11.5092 14.524C11.6692 14.364 11.8732 14.284 12.1212 14.284C12.3692 14.284 12.5732 14.364 12.7332 14.524C12.8932 14.676 12.9732 14.876 12.9732 15.124C12.9732 15.372 12.8932 15.576 12.7332 15.736C12.5732 15.896 12.3692 15.976 12.1212 15.976Z" fill="white"/>
</svg>
