<svg width="24" height="24" viewBox="0 0 24 24" fill="none" xmlns="http://www.w3.org/2000/svg">
<rect width="24" height="24" rx="12" fill="#0D25A8"/>
<path d="M11.3175 13.86C11.2842 13.86 11.2542 13.85 11.2275 13.83C11.2075 13.8033 11.1975 13.7733 11.1975 13.74V13.33C11.1975 13.01 11.2775 12.7533 11.4375 12.56C11.5975 12.36 11.8308 12.15 12.1375 11.93C12.4042 11.7367 12.6042 11.5633 12.7375 11.41C12.8708 11.25 12.9375 11.0533 12.9375 10.82C12.9375 10.56 12.8475 10.3533 12.6675 10.2C12.4875 10.04 12.2508 9.96 11.9575 9.96C11.6508 9.96 11.4042 10.0433 11.2175 10.21C11.0308 10.3767 10.9375 10.59 10.9375 10.85V11.06C10.9375 11.1333 10.8975 11.17 10.8175 11.17L9.8975 11.13C9.86417 11.13 9.83417 11.1167 9.8075 11.09C9.7875 11.0633 9.7775 11.0333 9.7775 11V10.85C9.7775 10.47 9.87083 10.1333 10.0575 9.84C10.2442 9.54 10.5042 9.31 10.8375 9.15C11.1708 8.98333 11.5542 8.9 11.9875 8.9C12.6342 8.9 13.1508 9.07333 13.5375 9.42C13.9242 9.76 14.1175 10.2133 14.1175 10.78C14.1175 11.0733 14.0642 11.3267 13.9575 11.54C13.8575 11.7533 13.7375 11.9267 13.5975 12.06C13.4642 12.1933 13.2808 12.3433 13.0475 12.51C12.8142 12.6767 12.6408 12.8233 12.5275 12.95C12.4142 13.07 12.3575 13.22 12.3575 13.4V13.74C12.3575 13.7733 12.3442 13.8033 12.3175 13.83C12.2975 13.85 12.2708 13.86 12.2375 13.86H11.3175ZM11.7475 16.01C11.5408 16.01 11.3708 15.9433 11.2375 15.81C11.1042 15.6767 11.0375 15.5067 11.0375 15.3C11.0375 15.0933 11.1042 14.9267 11.2375 14.8C11.3708 14.6667 11.5408 14.6 11.7475 14.6C11.9542 14.6 12.1208 14.6667 12.2475 14.8C12.3808 14.9267 12.4475 15.0933 12.4475 15.3C12.4475 15.5067 12.3808 15.6767 12.2475 15.81C12.1142 15.9433 11.9475 16.01 11.7475 16.01Z" fill="white"/>
</svg>
