<svg width="14" height="14" viewBox="0 0 14 14" fill="none" xmlns="http://www.w3.org/2000/svg">
<g clip-path="url(#clip0_90_7942)">
<path d="M12.4946 6.3717C12.5991 6.32563 12.6877 6.24994 12.7495 6.154C12.8113 6.05806 12.8437 5.94609 12.8425 5.83196C12.8413 5.71783 12.8067 5.60656 12.7429 5.51192C12.6791 5.41728 12.5889 5.34343 12.4836 5.29953L7.4838 3.0222C7.33181 2.95287 7.1667 2.91699 6.99964 2.91699C6.83258 2.91699 6.66747 2.95287 6.51547 3.0222L1.5163 5.2972C1.41245 5.34268 1.32411 5.41745 1.26207 5.51234C1.20003 5.60724 1.16699 5.71816 1.16699 5.83153C1.16699 5.94491 1.20003 6.05583 1.26207 6.15072C1.32411 6.24562 1.41245 6.32038 1.5163 6.36587L6.51547 8.64553C6.66747 8.71486 6.83258 8.75074 6.99964 8.75074C7.1667 8.75074 7.33181 8.71486 7.4838 8.64553L12.4946 6.3717Z" stroke="#0D25A8" stroke-width="1.16667" stroke-linecap="round" stroke-linejoin="round"/>
<path d="M12.833 5.83301V9.33301" stroke="#0D25A8" stroke-width="1.16667" stroke-linecap="round" stroke-linejoin="round"/>
<path d="M3.5 7.29199V9.33366C3.5 9.79779 3.86875 10.2429 4.52513 10.5711C5.1815 10.8993 6.07174 11.0837 7 11.0837C7.92826 11.0837 8.8185 10.8993 9.47487 10.5711C10.1313 10.2429 10.5 9.79779 10.5 9.33366V7.29199" stroke="#0D25A8" stroke-width="1.16667" stroke-linecap="round" stroke-linejoin="round"/>
</g>
<defs>
<clipPath id="clip0_90_7942">
<rect width="14" height="14" fill="white"/>
</clipPath>
</defs>
</svg>
