<svg width="32" height="29" viewBox="0 0 32 29" fill="none" xmlns="http://www.w3.org/2000/svg">
<path d="M12.27 26.4834L18.3039 17.0554H24.9036C27.732 17.0554 30.089 15.6411 30.5605 14.2269C30.089 12.8127 27.732 11.3985 24.9036 11.3985H18.3039L12.27 1.97041C11.8928 1.40473 11.3271 1.21616 10.7615 1.40473L10.0072 1.59329C9.34725 1.87613 8.97012 2.44182 9.0644 3.10178L10.7615 11.3985L6.04741 12.3413L3.21899 9.51289H1.33337L2.27618 14.2269L1.33337 18.941H3.21899L6.04741 16.1125L10.7615 17.0554L9.0644 25.3521C8.97012 26.012 9.34724 26.5777 10.0072 26.8606L10.6672 27.1434C11.3271 27.2377 11.8928 27.0491 12.27 26.4834Z" stroke="#FFCC00" stroke-width="2.66667" stroke-linecap="round" stroke-linejoin="round"/>
</svg>
