<svg width="32" height="32" viewBox="0 0 32 32" fill="none" xmlns="http://www.w3.org/2000/svg">
<path d="M16.0003 29.3327C23.3641 29.3327 29.3337 23.3631 29.3337 15.9993C29.3337 8.63555 23.3641 2.66602 16.0003 2.66602C8.63653 2.66602 2.66699 8.63555 2.66699 15.9993C2.66699 23.3631 8.63653 29.3327 16.0003 29.3327Z" stroke="#FFCC00" stroke-width="2.66667" stroke-linecap="round" stroke-linejoin="round"/>
<path d="M16 24C20.4183 24 24 20.4183 24 16C24 11.5817 20.4183 8 16 8C11.5817 8 8 11.5817 8 16C8 20.4183 11.5817 24 16 24Z" stroke="#FFCC00" stroke-width="2.66667" stroke-linecap="round" stroke-linejoin="round"/>
<path d="M15.9997 18.6673C17.4724 18.6673 18.6663 17.4734 18.6663 16.0007C18.6663 14.5279 17.4724 13.334 15.9997 13.334C14.5269 13.334 13.333 14.5279 13.333 16.0007C13.333 17.4734 14.5269 18.6673 15.9997 18.6673Z" stroke="#FFCC00" stroke-width="2.66667" stroke-linecap="round" stroke-linejoin="round"/>
</svg>
